<svg width="24" height="24" viewBox="0 0 24 24" fill="none" xmlns="http://www.w3.org/2000/svg">
<path d="M18.3643 15.5358L16.9501 14.1216L18.3643 12.7074C20.3169 10.7548 20.3169 7.58897 18.3643 5.63635C16.4117 3.68372 13.2458 3.68372 11.2932 5.63635L9.87898 7.05056L8.46477 5.63635L9.87898 4.22213C12.6127 1.48846 17.0448 1.48846 19.7785 4.22213C22.5122 6.9558 22.5122 11.3879 19.7785 14.1216L18.3643 15.5358ZM15.5358 18.3643L14.1216 19.7785C11.388 22.5121 6.9558 22.5121 4.22213 19.7785C1.48846 17.0448 1.48846 12.6126 4.22213 9.87899L5.63634 8.46477L7.05056 9.87899L5.63634 11.2932C3.68372 13.2458 3.68372 16.4116 5.63634 18.3643C7.58896 20.3169 10.7548 20.3169 12.7074 18.3643L14.1216 16.95L15.5358 18.3643ZM14.8287 7.75767L16.243 9.17188L9.17188 16.2429L7.75766 14.8287L14.8287 7.75767Z" fill="#5A5A67"/>
</svg>
